<mxfile host="Electron" agent="Mozilla/5.0 (Macintosh; Intel Mac OS X 10_15_7) AppleWebKit/537.36 (KHTML, like Gecko) draw.io/24.7.5 Chrome/126.0.6478.183 Electron/31.3.0 Safari/537.36" version="24.7.5">
  <diagram name="Page-1" id="5f0bae14-7c28-e335-631c-24af17079c00">
    <mxGraphModel dx="1306" dy="832" grid="1" gridSize="10" guides="1" tooltips="1" connect="1" arrows="1" fold="1" page="1" pageScale="1" pageWidth="1100" pageHeight="850" background="none" math="0" shadow="0">
      <root>
        <mxCell id="0" />
        <mxCell id="1" parent="0" />
        <mxCell id="39150e848f15840c-1" value="Co2 Sensor Simulation&amp;nbsp;" style="verticalAlign=top;align=left;spacingTop=8;spacingLeft=2;spacingRight=12;shape=cube;size=10;direction=south;fontStyle=4;html=1;rounded=0;shadow=0;comic=0;labelBackgroundColor=none;strokeWidth=1;fontFamily=Verdana;fontSize=12" parent="1" vertex="1">
          <mxGeometry x="20" y="40" width="330" height="220" as="geometry" />
        </mxCell>
        <mxCell id="39150e848f15840c-2" value="Average Calculator&amp;nbsp;" style="verticalAlign=top;align=left;spacingTop=8;spacingLeft=2;spacingRight=12;shape=cube;size=10;direction=south;fontStyle=4;html=1;rounded=0;shadow=0;comic=0;labelBackgroundColor=none;strokeWidth=1;fontFamily=Verdana;fontSize=12" parent="1" vertex="1">
          <mxGeometry x="420" y="20" width="320" height="405" as="geometry" />
        </mxCell>
        <mxCell id="39150e848f15840c-3" value="Data" style="verticalAlign=top;align=left;spacingTop=8;spacingLeft=2;spacingRight=12;shape=cube;size=10;direction=south;fontStyle=4;html=1;rounded=0;shadow=0;comic=0;labelBackgroundColor=none;strokeWidth=1;fontFamily=Verdana;fontSize=12" parent="1" vertex="1">
          <mxGeometry x="60" y="500" width="710" height="310" as="geometry" />
        </mxCell>
        <mxCell id="xgpbtPdXY1VR1epWBYFN-4" style="edgeStyle=orthogonalEdgeStyle;rounded=0;orthogonalLoop=1;jettySize=auto;html=1;" parent="1" source="39150e848f15840c-5" target="xgpbtPdXY1VR1epWBYFN-3" edge="1">
          <mxGeometry relative="1" as="geometry" />
        </mxCell>
        <mxCell id="xgpbtPdXY1VR1epWBYFN-9" style="edgeStyle=orthogonalEdgeStyle;rounded=0;orthogonalLoop=1;jettySize=auto;html=1;entryX=0.113;entryY=0.456;entryDx=0;entryDy=0;entryPerimeter=0;" parent="1" source="yPsKBsLQMUbUTYyl0QJ--6" target="S6We1W1pHtm4QpCIwCRR-1" edge="1">
          <mxGeometry relative="1" as="geometry">
            <Array as="points">
              <mxPoint x="570" y="460" />
              <mxPoint x="165" y="460" />
              <mxPoint x="165" y="461" />
            </Array>
          </mxGeometry>
        </mxCell>
        <mxCell id="39150e848f15840c-5" value="Sensor Simulator" style="shape=component;align=left;spacingLeft=36;rounded=0;shadow=0;comic=0;labelBackgroundColor=none;strokeWidth=1;fontFamily=Verdana;fontSize=12;html=1;" parent="1" vertex="1">
          <mxGeometry x="90" y="120" width="150" height="60" as="geometry" />
        </mxCell>
        <mxCell id="39150e848f15840c-8" value="«interface»&lt;br&gt;&lt;b&gt;Average Calculator&amp;nbsp;&lt;/b&gt;" style="html=1;rounded=0;shadow=0;comic=0;labelBackgroundColor=none;strokeWidth=1;fontFamily=Verdana;fontSize=12;align=center;" parent="1" vertex="1">
          <mxGeometry x="515" y="170" width="130" height="70" as="geometry" />
        </mxCell>
        <mxCell id="39150e848f15840c-16" style="edgeStyle=orthogonalEdgeStyle;rounded=0;html=1;dashed=1;labelBackgroundColor=none;startArrow=none;startFill=0;startSize=8;endArrow=open;endFill=0;endSize=16;fontFamily=Verdana;fontSize=12;" parent="1" source="39150e848f15840c-7" target="39150e848f15840c-8" edge="1">
          <mxGeometry relative="1" as="geometry" />
        </mxCell>
        <mxCell id="eX59-adZzxfQ1hKOJ8mb-1" value="User Interface&amp;nbsp;" style="verticalAlign=top;align=left;spacingTop=8;spacingLeft=2;spacingRight=12;shape=cube;size=10;direction=south;fontStyle=4;html=1;rounded=0;shadow=0;comic=0;labelBackgroundColor=none;strokeWidth=1;fontFamily=Verdana;fontSize=12" parent="1" vertex="1">
          <mxGeometry x="950" y="30" width="140" height="770" as="geometry" />
        </mxCell>
        <mxCell id="eX59-adZzxfQ1hKOJ8mb-7" style="edgeStyle=orthogonalEdgeStyle;rounded=0;html=1;dashed=1;labelBackgroundColor=none;startArrow=none;startFill=0;startSize=8;endArrow=open;endFill=0;endSize=16;fontFamily=Verdana;fontSize=12;exitX=0.5;exitY=0;exitDx=0;exitDy=0;" parent="1" source="eX59-adZzxfQ1hKOJ8mb-2" edge="1">
          <mxGeometry relative="1" as="geometry">
            <mxPoint x="640" y="274.5" as="sourcePoint" />
            <mxPoint x="580" y="240" as="targetPoint" />
          </mxGeometry>
        </mxCell>
        <mxCell id="eX59-adZzxfQ1hKOJ8mb-8" value="Historie&amp;nbsp;" style="shape=component;align=left;spacingLeft=36;rounded=0;shadow=0;comic=0;labelBackgroundColor=none;strokeWidth=1;fontFamily=Verdana;fontSize=12;html=1;" parent="1" vertex="1">
          <mxGeometry x="537.5" y="650" width="135" height="90" as="geometry" />
        </mxCell>
        <mxCell id="eX59-adZzxfQ1hKOJ8mb-9" value="TrendCalculator" style="shape=component;align=left;spacingLeft=36;rounded=0;shadow=0;comic=0;labelBackgroundColor=none;strokeWidth=1;fontFamily=Verdana;fontSize=12;html=1;" parent="1" vertex="1">
          <mxGeometry x="530" y="540" width="150" height="90" as="geometry" />
        </mxCell>
        <mxCell id="yPsKBsLQMUbUTYyl0QJ--10" style="edgeStyle=orthogonalEdgeStyle;rounded=0;orthogonalLoop=1;jettySize=auto;html=1;entryX=0.5;entryY=0;entryDx=0;entryDy=0;exitX=0.5;exitY=1;exitDx=0;exitDy=0;" parent="1" source="xgpbtPdXY1VR1epWBYFN-3" target="yPsKBsLQMUbUTYyl0QJ--6" edge="1">
          <mxGeometry relative="1" as="geometry">
            <Array as="points">
              <mxPoint x="500" y="130" />
              <mxPoint x="500" y="280" />
              <mxPoint x="570" y="280" />
            </Array>
          </mxGeometry>
        </mxCell>
        <mxCell id="xgpbtPdXY1VR1epWBYFN-3" value="Datenpuffer" style="shape=component;align=left;spacingLeft=36;rounded=0;shadow=0;comic=0;labelBackgroundColor=none;strokeWidth=1;fontFamily=Verdana;fontSize=12;html=1;" parent="1" vertex="1">
          <mxGeometry x="500" y="80" width="140" height="50" as="geometry" />
        </mxCell>
        <mxCell id="xgpbtPdXY1VR1epWBYFN-14" style="edgeStyle=orthogonalEdgeStyle;rounded=0;orthogonalLoop=1;jettySize=auto;html=1;" parent="1" source="xgpbtPdXY1VR1epWBYFN-7" target="eX59-adZzxfQ1hKOJ8mb-9" edge="1">
          <mxGeometry relative="1" as="geometry" />
        </mxCell>
        <mxCell id="xgpbtPdXY1VR1epWBYFN-15" style="edgeStyle=orthogonalEdgeStyle;rounded=0;orthogonalLoop=1;jettySize=auto;html=1;" parent="1" source="xgpbtPdXY1VR1epWBYFN-7" target="eX59-adZzxfQ1hKOJ8mb-8" edge="1">
          <mxGeometry relative="1" as="geometry" />
        </mxCell>
        <mxCell id="xgpbtPdXY1VR1epWBYFN-7" value="Datenpuffer" style="shape=component;align=left;spacingLeft=36;rounded=0;shadow=0;comic=0;labelBackgroundColor=none;strokeWidth=1;fontFamily=Verdana;fontSize=12;html=1;" parent="1" vertex="1">
          <mxGeometry x="130" y="600" width="190" height="90" as="geometry" />
        </mxCell>
        <mxCell id="xgpbtPdXY1VR1epWBYFN-8" style="edgeStyle=orthogonalEdgeStyle;rounded=0;orthogonalLoop=1;jettySize=auto;html=1;" parent="1" source="39150e848f15840c-5" edge="1">
          <mxGeometry relative="1" as="geometry">
            <Array as="points">
              <mxPoint x="165" y="560" />
              <mxPoint x="230" y="560" />
            </Array>
            <mxPoint x="230" y="600" as="targetPoint" />
          </mxGeometry>
        </mxCell>
        <mxCell id="xgpbtPdXY1VR1epWBYFN-12" style="edgeStyle=orthogonalEdgeStyle;rounded=0;orthogonalLoop=1;jettySize=auto;html=1;entryX=0.25;entryY=1;entryDx=0;entryDy=0;" parent="1" source="eX59-adZzxfQ1hKOJ8mb-9" target="S6We1W1pHtm4QpCIwCRR-1" edge="1">
          <mxGeometry relative="1" as="geometry" />
        </mxCell>
        <mxCell id="xgpbtPdXY1VR1epWBYFN-13" style="edgeStyle=orthogonalEdgeStyle;rounded=0;orthogonalLoop=1;jettySize=auto;html=1;" parent="1" source="eX59-adZzxfQ1hKOJ8mb-8" edge="1">
          <mxGeometry relative="1" as="geometry">
            <Array as="points">
              <mxPoint x="880" y="695" />
            </Array>
            <mxPoint x="880" y="512" as="targetPoint" />
          </mxGeometry>
        </mxCell>
        <mxCell id="yPsKBsLQMUbUTYyl0QJ--2" value="Datenstruktur: Circular Buffer &#xa;-&gt; implemented as Array&#xa;Maximale Datensätze: &#xa;600 ( 10 Minuten bei 1 Datensatz pro Sekunde) &#xa;&#xa;" style="text;overflow=hidden;rounded=0;align=left;verticalAlign=middle;horizontal=1;spacing=2;whiteSpace=wrap;" parent="1" vertex="1">
          <mxGeometry x="140" y="700" width="180" height="60" as="geometry" />
        </mxCell>
        <mxCell id="yPsKBsLQMUbUTYyl0QJ--4" value="Kleiner Datenpuffer: Circular &#xa;Maximale Datensätze: 1 Minute " style="text;overflow=hidden;rounded=0;align=left;verticalAlign=middle;horizontal=1;spacing=2;whiteSpace=wrap;" parent="1" vertex="1">
          <mxGeometry x="550" y="30" width="170" height="50" as="geometry" />
        </mxCell>
        <mxCell id="yPsKBsLQMUbUTYyl0QJ--8" style="edgeStyle=orthogonalEdgeStyle;rounded=0;orthogonalLoop=1;jettySize=auto;html=1;" parent="1" source="yPsKBsLQMUbUTYyl0QJ--6" edge="1">
          <mxGeometry relative="1" as="geometry">
            <mxPoint x="870" y="415" as="targetPoint" />
          </mxGeometry>
        </mxCell>
        <mxCell id="yPsKBsLQMUbUTYyl0QJ--6" value="Averager" style="shape=module;align=left;spacingLeft=20;align=center;verticalAlign=top;whiteSpace=wrap;html=1;" parent="1" vertex="1">
          <mxGeometry x="412.5" y="300" width="315" height="100" as="geometry" />
        </mxCell>
        <mxCell id="39150e848f15840c-7" value="EMA" style="shape=component;align=left;spacingLeft=36;rounded=0;shadow=0;comic=0;labelBackgroundColor=none;strokeWidth=1;fontFamily=Verdana;fontSize=12;html=1;" parent="1" vertex="1">
          <mxGeometry x="590" y="320" width="120" height="60" as="geometry" />
        </mxCell>
        <mxCell id="eX59-adZzxfQ1hKOJ8mb-2" value="SMA&amp;nbsp;" style="shape=component;align=left;spacingLeft=36;rounded=0;shadow=0;comic=0;labelBackgroundColor=none;strokeWidth=1;fontFamily=Verdana;fontSize=12;html=1;" parent="1" vertex="1">
          <mxGeometry x="440" y="320" width="120" height="60" as="geometry" />
        </mxCell>
        <mxCell id="yPsKBsLQMUbUTYyl0QJ--9" style="edgeStyle=orthogonalEdgeStyle;rounded=0;orthogonalLoop=1;jettySize=auto;html=1;entryX=0.595;entryY=0.011;entryDx=0;entryDy=0;entryPerimeter=0;exitX=0.5;exitY=1;exitDx=0;exitDy=0;" parent="1" source="yPsKBsLQMUbUTYyl0QJ--6" target="xgpbtPdXY1VR1epWBYFN-7" edge="1">
          <mxGeometry relative="1" as="geometry">
            <Array as="points">
              <mxPoint x="570" y="440" />
              <mxPoint x="243" y="440" />
            </Array>
          </mxGeometry>
        </mxCell>
        <mxCell id="S6We1W1pHtm4QpCIwCRR-2" style="edgeStyle=orthogonalEdgeStyle;rounded=0;orthogonalLoop=1;jettySize=auto;html=1;" edge="1" parent="1" source="S6We1W1pHtm4QpCIwCRR-1">
          <mxGeometry relative="1" as="geometry">
            <mxPoint x="960" y="465" as="targetPoint" />
          </mxGeometry>
        </mxCell>
        <mxCell id="S6We1W1pHtm4QpCIwCRR-1" value="API" style="shape=component;align=left;spacingLeft=36;rounded=0;shadow=0;comic=0;labelBackgroundColor=none;strokeWidth=1;fontFamily=Verdana;fontSize=12;html=1;" vertex="1" parent="1">
          <mxGeometry x="790" y="420" width="150" height="90" as="geometry" />
        </mxCell>
      </root>
    </mxGraphModel>
  </diagram>
</mxfile>
